<mxfile host="app.diagrams.net" modified="2021-12-10T19:14:47.173Z" agent="5.0 (Macintosh; Intel Mac OS X 10_15_7) AppleWebKit/605.1.15 (KHTML, like Gecko) Version/15.1 Safari/605.1.15" etag="HjpaXIc7YHfmCUL16csn" version="15.9.4" type="github">
  <diagram id="yPxyJZ8AM_hMuL3Unpa9" name="complex gitflow">
    <mxGraphModel dx="858" dy="816" grid="1" gridSize="10" guides="1" tooltips="1" connect="1" arrows="1" fold="1" page="1" pageScale="1" pageWidth="1169" pageHeight="827" math="0" shadow="0">
      <root>
        <mxCell id="0" />
        <mxCell id="1" parent="0" />
        <mxCell id="W7WsM5jzmSZuX8Bi8j7b-1" value="UI" style="rounded=0;whiteSpace=wrap;html=1;" vertex="1" parent="1">
          <mxGeometry x="490" y="90" width="180" height="60" as="geometry" />
        </mxCell>
        <mxCell id="W7WsM5jzmSZuX8Bi8j7b-2" value="SearchBrain" style="rounded=0;whiteSpace=wrap;html=1;" vertex="1" parent="1">
          <mxGeometry x="490" y="330" width="180" height="140" as="geometry" />
        </mxCell>
        <mxCell id="W7WsM5jzmSZuX8Bi8j7b-4" value="Lexer" style="rounded=0;whiteSpace=wrap;html=1;" vertex="1" parent="1">
          <mxGeometry x="500" y="340" width="95" height="30" as="geometry" />
        </mxCell>
        <mxCell id="W7WsM5jzmSZuX8Bi8j7b-5" value="Aviation DataBank" style="rounded=0;whiteSpace=wrap;html=1;" vertex="1" parent="1">
          <mxGeometry x="730" y="410" width="140" height="60" as="geometry" />
        </mxCell>
        <mxCell id="W7WsM5jzmSZuX8Bi8j7b-14" value="ViewModel" style="rounded=0;whiteSpace=wrap;html=1;" vertex="1" parent="1">
          <mxGeometry x="492.5" y="210" width="175" height="60" as="geometry" />
        </mxCell>
        <mxCell id="W7WsM5jzmSZuX8Bi8j7b-18" value="FlightSearchService&lt;br&gt;Interface" style="rounded=0;whiteSpace=wrap;html=1;" vertex="1" parent="1">
          <mxGeometry x="290" y="210" width="140" height="60" as="geometry" />
        </mxCell>
        <mxCell id="W7WsM5jzmSZuX8Bi8j7b-19" value="FlightSearchService Live" style="rounded=0;whiteSpace=wrap;html=1;" vertex="1" parent="1">
          <mxGeometry x="90" y="210" width="140" height="60" as="geometry" />
        </mxCell>
        <mxCell id="W7WsM5jzmSZuX8Bi8j7b-20" value="Knowledge DataStore" style="rounded=0;whiteSpace=wrap;html=1;" vertex="1" parent="1">
          <mxGeometry x="730" y="330" width="140" height="60" as="geometry" />
        </mxCell>
      </root>
    </mxGraphModel>
  </diagram>
</mxfile>
